# xmcd
#
# Track frame offsets: 
#        150
#        11714
#        30665
#        43528
#        58671
#        69918
#        79750
#        90117
#        102735
#        118631
#        131382
#        142698
#        160548
#        172264
#        183041
#
# Disc length: 2583 seconds
#
# Revision: 0
# Processed by: cddbd v1.5.2PL0 Copyright (c) Steve Scherf et al.
# Submitted via: ExactAudioCopy v0.90b4
#
DISCID=b40a150f
DTITLE=It's M.E. - Opposites Attract
DYEAR=1998
DGENRE=Blues
TTITLE0=Honest I do
TTITLE1=Makin' whoopie
TTITLE2=Sugar coated love
TTITLE3=Nur nicht aus Liebe weinen
TTITLE4=I just wanna say I love you so
TTITLE5=Mean mean man
TTITLE6=Then I'll believe
TTITLE7=Bless you
TTITLE8=Ich weiss es wird einmal ein Wunder geschehen
TTITLE9=Can't believe you wanna leave
TTITLE10=Opposites attract
TTITLE11=So cold
TTITLE12=Keep a knockin'
TTITLE13=Take it like a man
TTITLE14=Dream a litte dream of me
EXTD=
EXTT0=
EXTT1=
EXTT2=
EXTT3=
EXTT4=
EXTT5=
EXTT6=
EXTT7=
EXTT8=
EXTT9=
EXTT10=
EXTT11=
EXTT12=
EXTT13=
EXTT14=
PLAYORDER=
